# xmcd
#
# Track frame offsets: 
#        150
#        25572
#        49059
#        83625
#        111503
#        132297
#        163249
#        189889
#        206881
#        225586
#        244029
#
# Disc length: 3464 seconds
#
# Revision: 0
# Processed by: cddbd v1.5.2PL0 Copyright (c) Steve Scherf et al.
# Submitted via: ExactAudioCopy v1.0b3
#
DISCID=8c0d860b
DTITLE=Coffee - Slippin' And Dippin'
DYEAR=1980
DGENRE=Disco
TTITLE0=Slip And Dip
TTITLE1=Mom And Dad 1980
TTITLE2=I Wanna Be With You
TTITLE3=Casanova
TTITLE4=A Promise
TTITLE5=Can You Get To This
TTITLE6=Say It, It's Good For You
TTITLE7=Slip And Dip (Single Version)
TTITLE8=Mom And Dad 1980 (Single Version)
TTITLE9=I Wanna Be With You (Single Version)
TTITLE10=Casanova (Single Version)
EXTD=
EXTT0=
EXTT1=
EXTT2=
EXTT3=
EXTT4=
EXTT5=
EXTT6=
EXTT7=
EXTT8=
EXTT9=
EXTT10=
PLAYORDER=
